<svg xmlns="http://www.w3.org/2000/svg" width="1800" height="1200" viewBox="0 0 1800 1200">
<rect width="100%" height="100%" fill="white"/>
<style>text{font-family:Georgia,'Times New Roman',serif;fill:#18252B}.axis{stroke:#18252B;stroke-width:3}.grid{stroke:#D9E2E7;stroke-width:2}.tick{font-size:30px}.label{font-size:36px}.legend{font-size:30px}</style>
<line class="axis" x1="180" y1="90" x2="180" y2="1010"/>
<line class="axis" x1="180" y1="1010" x2="1680" y2="1010"/>
<line class="grid" x1="180" y1="1010.0" x2="1680" y2="1010.0"/>
<text class="tick" x="158" y="1020.0" text-anchor="end">0.000</text>
<line class="grid" x1="180" y1="826.0" x2="1680" y2="826.0"/>
<text class="tick" x="158" y="836.0" text-anchor="end">0.174</text>
<line class="grid" x1="180" y1="642.0" x2="1680" y2="642.0"/>
<text class="tick" x="158" y="652.0" text-anchor="end">0.347</text>
<line class="grid" x1="180" y1="458.0" x2="1680" y2="458.0"/>
<text class="tick" x="158" y="468.0" text-anchor="end">0.521</text>
<line class="grid" x1="180" y1="274.0" x2="1680" y2="274.0"/>
<text class="tick" x="158" y="284.0" text-anchor="end">0.694</text>
<line class="grid" x1="180" y1="90.0" x2="1680" y2="90.0"/>
<text class="tick" x="158" y="100.0" text-anchor="end">0.868</text>
<text class="tick" x="555.0" y="1065" text-anchor="middle">adult</text>
<text class="tick" x="1305.0" y="1065" text-anchor="middle">compas</text>
<text class="label" transform="translate(48 550.0) rotate(-90)" text-anchor="middle">Test accuracy</text>
<rect x="315.29999999999995" y="188.78958479943697" width="224.40000000000003" height="821.210415200563" fill="#176B87"/>
<line class="axis" x1="427.5" y1="189.00774102744538" x2="427.5" y2="188.57142857142867"/>
<line class="axis" x1="415.5" y1="189.00774102744538" x2="439.5" y2="189.00774102744538"/>
<line class="axis" x1="415.5" y1="188.57142857142867" x2="439.5" y2="188.57142857142867"/>
<rect x="1065.3" y="309.075554986885" width="224.40000000000003" height="700.924445013115" fill="#176B87"/>
<line class="axis" x1="1177.5" y1="311.35041477406" x2="1177.5" y2="306.80069519970993"/>
<line class="axis" x1="1165.5" y1="311.35041477406" x2="1189.5" y2="311.35041477406"/>
<line class="axis" x1="1165.5" y1="306.80069519970993" x2="1189.5" y2="306.80069519970993"/>
<rect x="250" y="1120" width="35" height="24" fill="#176B87"/>
<text class="legend" x="298" y="1142">B0</text>
<rect x="570.3" y="188.78958479943697" width="224.40000000000003" height="821.210415200563" fill="#C35A21"/>
<line class="axis" x1="682.5" y1="189.0007037297679" x2="682.5" y2="188.57846586910614"/>
<line class="axis" x1="670.5" y1="189.0007037297679" x2="694.5" y2="189.0007037297679"/>
<line class="axis" x1="670.5" y1="188.57846586910614" x2="694.5" y2="188.57846586910614"/>
<rect x="1320.3" y="311.21659949246146" width="224.40000000000003" height="698.7834005075385" fill="#C35A21"/>
<line class="axis" x1="1432.5" y1="313.89290512443233" x2="1432.5" y2="308.5402938604908"/>
<line class="axis" x1="1420.5" y1="313.89290512443233" x2="1444.5" y2="313.89290512443233"/>
<line class="axis" x1="1420.5" y1="308.5402938604908" x2="1444.5" y2="308.5402938604908"/>
<rect x="580" y="1120" width="35" height="24" fill="#C35A21"/>
<text class="legend" x="628" y="1142">B3</text>
</svg>