<svg xmlns="http://www.w3.org/2000/svg" width="1800" height="1200" viewBox="0 0 1800 1200">
<rect width="100%" height="100%" fill="white"/>
<style>text{font-family:Georgia,'Times New Roman',serif;fill:#18252B}.axis{stroke:#18252B;stroke-width:3}.grid{stroke:#D9E2E7;stroke-width:2}.tick{font-size:30px}.label{font-size:36px}.legend{font-size:30px}</style>
<line class="axis" x1="180" y1="90" x2="180" y2="1010"/>
<line class="axis" x1="180" y1="1010" x2="1680" y2="1010"/>
<line class="grid" x1="180" y1="1010.0" x2="1680" y2="1010.0"/>
<text class="tick" x="158" y="1020.0" text-anchor="end">0.000</text>
<line class="grid" x1="180" y1="826.0" x2="1680" y2="826.0"/>
<text class="tick" x="158" y="836.0" text-anchor="end">0.176</text>
<line class="grid" x1="180" y1="642.0" x2="1680" y2="642.0"/>
<text class="tick" x="158" y="652.0" text-anchor="end">0.351</text>
<line class="grid" x1="180" y1="458.0" x2="1680" y2="458.0"/>
<text class="tick" x="158" y="468.0" text-anchor="end">0.527</text>
<line class="grid" x1="180" y1="274.0" x2="1680" y2="274.0"/>
<text class="tick" x="158" y="284.0" text-anchor="end">0.703</text>
<line class="grid" x1="180" y1="90.0" x2="1680" y2="90.0"/>
<text class="tick" x="158" y="100.0" text-anchor="end">0.878</text>
<text class="tick" x="367.5" y="1065" text-anchor="middle">lenient</text>
<text class="tick" x="742.5" y="1065" text-anchor="middle">moderate</text>
<text class="tick" x="1117.5" y="1065" text-anchor="middle">strict</text>
<text class="tick" x="1492.5" y="1065" text-anchor="middle">submitted</text>
<text class="label" transform="translate(48 550.0) rotate(-90)" text-anchor="middle">Test accuracy</text>
<rect x="255.29999999999998" y="208.4415649238639" width="224.40000000000003" height="801.5584350761361" fill="#176B87"/>
<line class="axis" x1="367.5" y1="212.5464231831785" x2="367.5" y2="204.3367066645494"/>
<line class="axis" x1="355.5" y1="212.5464231831785" x2="379.5" y2="212.5464231831785"/>
<line class="axis" x1="355.5" y1="204.3367066645494" x2="379.5" y2="204.3367066645494"/>
<rect x="630.3" y="227.95936709524665" width="224.40000000000003" height="782.0406329047534" fill="#176B87"/>
<line class="axis" x1="742.5" y1="267.3473056190646" x2="742.5" y2="188.57142857142867"/>
<line class="axis" x1="730.5" y1="267.3473056190646" x2="754.5" y2="267.3473056190646"/>
<line class="axis" x1="730.5" y1="188.57142857142867" x2="754.5" y2="188.57142857142867"/>
<rect x="1005.3" y="485.5234072250162" width="224.40000000000003" height="524.4765927749838" fill="#176B87"/>
<line class="axis" x1="1117.5" y1="686.9424959709305" x2="1117.5" y2="284.10431847910183"/>
<line class="axis" x1="1105.5" y1="686.9424959709305" x2="1129.5" y2="686.9424959709305"/>
<line class="axis" x1="1105.5" y1="284.10431847910183" x2="1129.5" y2="284.10431847910183"/>
<rect x="1380.3" y="213.88095241424935" width="224.40000000000003" height="796.1190475857506" fill="#176B87"/>
<line class="axis" x1="1492.5" y1="215.35259077233775" x2="1492.5" y2="212.40931405616072"/>
<line class="axis" x1="1480.5" y1="215.35259077233775" x2="1504.5" y2="215.35259077233775"/>
<line class="axis" x1="1480.5" y1="212.40931405616072" x2="1504.5" y2="212.40931405616072"/>
<rect x="250" y="1120" width="35" height="24" fill="#176B87"/>
<text class="legend" x="298" y="1142">Test accuracy</text>
</svg>